#!OML:ASF F:\VICON\USERDATA\INSTALL\Justin_Nancy\Justin_Nancy.ASF
:FULLY-SPECIFIED
:DEGREES
334
root -10.1574 17.2289 13.0164 7.70645 -52.7112 -7.161
lowerback 4.8308 1.22491 3.94492
upperback 0.0906451 1.89879 2.81416
thorax -2.58376 0.900974 0.555518
lowerneck -15.1809 -4.01265 -10.3508
upperneck 20.981 -4.57023 6.30217
head 9.52098 -2.31175 3.32261
rclavicle -1.69464e-014 -2.10712e-014
rhumerus -25.7844 -5.77828 -80.9252
rradius 37.0635
rwrist 1.90868
rhand -11.8661 16.0426
rfingers 7.12502
rthumb 14.186 -13.453
lclavicle -1.69464e-014 -2.10712e-014
lhumerus -34.8845 17.178 81.7282
lradius 21.479
lwrist -14.7414
lhand -12.6638 25.1807
lfingers 7.12502
lthumb 13.4172 54.7286
rfemur 6.7319 4.38416 31.3211
rtibia 16.9549
rfoot -16.0139 -1.08059
rtoes 7.07304
lfemur -30.2685 -10.6662 -12.0529
ltibia 20.8963
lfoot -13.3579 20.7992
ltoes -6.80753
335
root -10.2446 17.2174 13.0963 8.16643 -52.5196 -7.48449
lowerback 5.14847 1.19924 4.00215
upperback -0.157318 1.90236 2.92757
thorax -3.02075 0.893956 0.630533
lowerneck -14.8693 -3.9871 -10.451
upperneck 20.8269 -4.55391 6.37086
head 9.41169 -2.30861 3.36649
rclavicle -3.58309e-014 -2.06736e-014
rhumerus -25.9064 -5.67537 -80.8073
rradius 37.0418
rwrist 1.77503
rhand -11.8474 16.0658
rfingers 7.12502
rthumb 14.204 -13.4285
lclavicle -3.58309e-014 -2.06736e-014
lhumerus -35.2551 17.6587 81.4768
lradius 21.4252
lwrist -15.3978
lhand -12.288 25.1263
lfingers 7.12502
lthumb 13.7794 54.65
rfemur 6.6212 4.82122 31.6436
rtibia 17.6011
rfoot -15.915 -1.37698
rtoes 7.67035
lfemur -30.3247 -7.9429 -12.8123
ltibia 20.6639
lfoot -11.9651 17.0407
ltoes -5.75937
336
root -10.3416 17.211 13.1946 7.90747 -52.2907 -7.16305
lowerback 5.46775 1.21236 3.72797
upperback -0.270786 1.9282 2.87526
thorax -3.32434 0.906623 0.71915
lowerneck -15.1108 -3.97239 -10.2962
upperneck 21.1793 -4.56339 6.36837
head 9.57628 -2.30214 3.34126
rclavicle -1.03915e-013 -3.61788e-014
rhumerus -26.061 -5.87864 -80.6975
rradius 37.1438
rwrist 1.52737
rhand -11.7507 16.0709
rfingers 7.12502
rthumb 14.2972 -13.4169
lclavicle -1.03915e-013 -3.61788e-014
lhumerus -35.3597 17.9849 81.2608
lradius 21.1898
lwrist -15.9618
lhand -12.4136 25.1586
lfingers 7.12502
lthumb 13.6584 54.6905
rfemur 6.77102 4.77217 31.4246
rtibia 18.3074
rfoot -16.023 -1.40499
rtoes 5.98848
lfemur -30.2709 -6.94562 -13.4101
ltibia 20.6636
lfoot -11.0297 14.6674
ltoes -0.62923
337
root -10.4431 17.1995 13.2983 7.56564 -52.057 -6.79254
lowerback 5.64147 1.10981 3.34629
upperback -0.325398 1.78321 3.00114
thorax -3.49616 0.84005 1.07026
lowerneck -15.2212 -3.93249 -10.6289
upperneck 21.3744 -4.44512 6.47211
head 9.66588 -2.26414 3.45142
rclavicle -1.45113e-014 3.97569e-015
rhumerus -25.9761 -5.89975 -80.5117
rradius 37.0368
rwrist 1.79872
rhand -11.8036 15.6833
rfingers 7.12502
rthumb 14.2462 -13.8081
lclavicle -1.45113e-014 3.97569e-015
lhumerus -35.4495 18.1381 81.4575
lradius 20.9088
lwrist -15.7783
lhand -12.9182 24.9524
lfingers 7.12502
lthumb 13.1721 54.5163
rfemur 7.01803 4.95021 31.2245
rtibia 19.0306
rfoot -16.237 -1.39552
rtoes 5.83436
lfemur -30.0028 -5.39863 -14.487
ltibia 20.8867
lfoot -9.27066 12.4981
ltoes -2.76133
338
root -10.5511 17.1895 13.4051 7.42873 -52.0364 -6.71856
lowerback 5.71174 1.25525 3.21592
upperback -0.253983 1.96911 3.0034
thorax -3.46516 0.935606 1.1288
lowerneck -15.2709 -4.11365 -10.5918
upperneck 21.2025 -4.68315 6.435
head 9.63633 -2.37076 3.39682
rclavicle 1.29558e-013 -1.82882e-014
rhumerus -25.7949 -6.84848 -80.2455
rradius 36.6993
rwrist 2.54143
rhand -11.5485 16.0778
rfingers 7.12502
rthumb 14.4921 -13.396
lclavicle 1.29558e-013 -1.82882e-014
lhumerus -35.1866 17.7491 81.7168
lradius 20.5537
lwrist -15.8157
lhand -13.2767 24.5448
lfingers 7.12502
lthumb 12.8264 54.1307
rfemur 7.23505 5.02059 31.1471
rtibia 19.7604
rfoot -16.1421 -1.3291
rtoes 4.56032
lfemur -29.6325 -4.32032 -15.156
ltibia 21.2495
lfoot -8.26921 10.8078
ltoes -6.15592
339
root -10.6627 17.1805 13.5168 7.01883 -52.0199 -6.42683
lowerback 5.85918 1.34027 3.02089
upperback -0.215062 2.07461 2.95689
thorax -3.51248 0.991263 1.17757
lowerneck -15.2009 -4.22386 -10.4885
upperneck 21.1261 -4.83328 6.29136
head 9.60486 -2.44754 3.30783
rclavicle 8.84592e-015 -2.78299e-014
rhumerus -25.871 -7.38081 -80.0273
rradius 36.5256
rwrist 2.73523
rhand -11.2977 16.5699
rfingers 7.12502
rthumb 14.7337 -12.8865
lclavicle 8.84592e-015 -2.78299e-014
lhumerus -35.1358 17.8867 81.6312
lradius 20.1836
lwrist -16.1356
lhand -13.0113 24.4913
lfingers 7.12502
lthumb 13.0823 54.061
rfemur 7.50439 4.76387 30.8956
rtibia 20.5373
rfoot -16.029 -1.26771
rtoes 1.59078
lfemur -29.1665 -3.28638 -15.93
ltibia 21.7425
lfoot -7.75211 8.92677
ltoes -7.94641
